<svg xmlns="http://www.w3.org/2000/svg" xmlns:xlink="http://www.w3.org/1999/xlink" width="320" height="452" viewBox="0 0 320 452" fill="none"><title>RiderShield AI</title><style>.lane{animation:lane .7s linear infinite}@keyframes lane{to{stroke-dashoffset:-12}}.bob{animation:bob 2.4s ease-in-out infinite}@keyframes bob{50%{transform:translate(2px,3px)}}.sheen{animation:sheen 6s ease-in-out 0.7s infinite}
@keyframes sheen{0%,70%{transform:translateX(-360px)}100%{transform:translateX(420px)}}</style><defs><path id="mb-N" d="M61 0V700H319L401 66H419V700H551V0H293L211 634H193V0Z"/><path id="mb-o" d="M306 -14Q238 -14 179 16Q120 46 84 103Q48 160 48 242V254Q48 335 84 392Q120 450 179 480Q238 510 306 510Q374 510 433 480Q492 450 528 392Q564 335 564 254V242Q564 160 528 103Q492 46 433 16Q374 -14 306 -14ZM306 106Q361 106 400 142Q438 177 438 238V258Q438 320 400 355Q361 390 306 390Q251 390 212 355Q174 320 174 258V238Q174 177 212 142Q251 106 306 106Z"/><path id="mb-period" d="M306 -14Q267 -14 239 14Q211 41 211 81Q211 121 239 148Q267 176 306 176Q345 176 373 148Q401 121 401 81Q401 41 373 14Q345 -14 306 -14Z"/><path id="mb-zero" d="M306 -14Q186 -14 117 60Q48 133 48 272V428Q48 563 117 638Q186 714 306 714Q426 714 495 638Q564 563 564 428V272Q564 133 495 60Q426 -14 306 -14ZM306 106Q378 106 405 150Q432 194 432 264V436Q432 480 419 516Q406 552 378 573Q351 594 306 594Q261 594 233 573Q205 552 192 516Q180 480 180 436V264Q180 194 207 150Q234 106 306 106ZM306 266Q272 266 247 291Q222 316 222 350Q222 384 247 409Q272 434 306 434Q340 434 365 409Q390 384 390 350Q390 316 365 291Q340 266 306 266Z"/><path id="mb-one" d="M66 0V126H264V634H246L180 394H54V406L138 700H396V126H570V0Z"/><path id="mb-E" d="M82 0V700H524V574H214V414H512V288H214V126H536V0Z"/><path id="mb-D" d="M46 0V127H112V574H46V700H300Q429 700 492 639Q556 578 556 452V248Q556 122 492 61Q429 0 300 0ZM244 126H300Q369 126 396 158Q424 191 424 260V452Q424 512 396 543Q369 574 300 574H244Z"/><path id="mb-G" d="M274 -14Q210 -14 158 18Q106 49 75 112Q44 175 44 268V432Q44 523 78 586Q111 649 170 682Q229 714 306 714Q386 714 443 680Q500 646 530 588Q560 531 560 460V448H428V460Q428 523 396 556Q363 588 304 588Q249 588 212 551Q176 514 176 422V274Q176 112 308 112Q367 112 398 144Q428 176 428 228H260V354H560V0H440V78H422Q410 39 376 12Q342 -14 274 -14Z"/><path id="mb-A" d="M15 0 182 700H430L597 0H459L425 150H187L153 0ZM215 276H396L315 634H297Z"/><path id="mb-I" d="M72 0V126H240V574H72V700H540V574H372V126H540V0Z"/><path id="dp-R" d="M66 0V700H370Q436 700 485 677Q534 654 561 612Q588 570 588 513V501Q588 438 558 399Q528 360 484 342V324Q524 322 546 296Q568 271 568 229V0H436V210Q436 234 424 249Q411 264 382 264H198V0ZM198 384H356Q403 384 430 410Q456 435 456 477V487Q456 529 430 554Q404 580 356 580H198Z"/><path id="dp-i" d="M70 0V496H196V0ZM133 554Q99 554 76 576Q52 598 52 634Q52 670 76 692Q99 714 133 714Q168 714 191 692Q214 670 214 634Q214 598 191 576Q168 554 133 554Z"/><path id="dp-d" d="M270 -14Q211 -14 160 16Q108 45 77 102Q46 159 46 240V256Q46 337 77 394Q108 451 159 480Q210 510 270 510Q315 510 346 500Q376 489 395 473Q414 457 424 439H442V700H568V0H444V60H426Q409 32 374 9Q338 -14 270 -14ZM308 96Q366 96 405 134Q444 171 444 243V253Q444 325 406 362Q367 400 308 400Q250 400 211 362Q172 325 172 253V243Q172 171 211 134Q250 96 308 96Z"/><path id="dp-e" d="M296 -14Q222 -14 166 18Q109 49 78 106Q46 164 46 242V254Q46 332 77 390Q108 447 164 478Q220 510 294 510Q367 510 421 478Q475 445 505 388Q535 330 535 254V211H174Q176 160 212 128Q248 96 300 96Q353 96 378 119Q403 142 416 170L519 116Q505 90 478 60Q452 29 408 8Q364 -14 296 -14ZM175 305H407Q403 348 372 374Q342 400 293 400Q242 400 212 374Q182 348 175 305Z"/><path id="dp-r" d="M70 0V496H194V440H212Q223 470 248 484Q274 498 308 498H368V386H306Q258 386 227 360Q196 335 196 282V0Z"/><path id="dp-S" d="M309 -14Q228 -14 166 15Q104 44 69 98Q34 152 34 228V256H164V228Q164 165 203 134Q242 102 309 102Q377 102 410 129Q444 156 444 198Q444 227 428 245Q411 263 380 274Q348 286 303 296L280 301Q208 317 156 342Q105 366 78 406Q50 446 50 510Q50 574 80 620Q111 665 166 690Q222 714 297 714Q372 714 430 688Q489 663 522 612Q556 562 556 486V456H426V486Q426 526 410 550Q395 575 366 586Q337 598 297 598Q237 598 208 576Q180 553 180 514Q180 488 194 470Q207 452 234 440Q261 428 303 419L326 414Q401 398 456 373Q512 348 543 307Q574 266 574 202Q574 138 542 90Q509 41 450 14Q390 -14 309 -14Z"/><path id="dp-h" d="M70 0V700H196V435H214Q222 451 239 467Q256 483 284 494Q313 504 357 504Q415 504 458 478Q502 451 526 404Q550 358 550 296V0H424V286Q424 342 396 370Q369 398 318 398Q260 398 228 360Q196 321 196 252V0Z"/><path id="dp-l" d="M70 0V700H196V0Z"/><path id="dp-A" d="M18 0 202 700H432L616 0H480L442 154H192L154 0ZM223 276H411L326 617H308Z"/><path id="dp-I" d="M66 0V700H198V0Z"/><path id="bd-S" d="M313 -14Q237 -14 177 13Q117 40 82 95Q48 149 48 231V252H131V231Q131 144 182 102Q233 59 313 59Q395 59 438 96Q481 133 481 189Q481 228 462 251Q442 274 407 289Q372 303 325 314L273 327Q212 343 165 366Q118 389 91 426Q65 464 65 523Q65 582 95 625Q124 668 178 691Q231 714 301 714Q372 714 428 690Q485 665 518 617Q550 570 550 498V456H467V498Q467 549 446 580Q424 611 387 626Q349 641 301 641Q232 641 190 610Q148 580 148 524Q148 487 166 464Q184 441 217 427Q250 412 296 401L348 388Q409 375 458 352Q506 330 535 291Q564 253 564 191Q564 129 533 83Q502 37 446 11Q389 -14 313 -14Z"/><path id="bd-e" d="M307 -14Q233 -14 177 18Q121 49 90 106Q59 163 59 238V250Q59 326 90 383Q121 440 176 471Q231 503 302 503Q371 503 424 473Q477 444 507 389Q537 334 537 260V224H138Q141 145 189 101Q237 56 309 56Q372 56 406 85Q440 114 458 154L526 121Q511 90 485 59Q458 28 416 7Q373 -14 307 -14ZM139 289H457Q453 357 410 395Q368 433 302 433Q235 433 192 395Q149 357 139 289Z"/><path id="bd-s" d="M280 -14Q189 -14 127 28Q64 70 51 161L126 178Q134 130 156 103Q178 75 210 64Q243 52 280 52Q335 52 367 74Q399 96 399 133Q399 171 369 187Q338 202 285 212L244 219Q197 227 158 244Q119 261 96 290Q73 319 73 363Q73 429 124 466Q175 503 259 503Q342 503 394 466Q445 428 460 360L386 341Q377 394 343 415Q309 437 259 437Q209 437 180 418Q151 400 151 364Q151 329 179 313Q206 296 252 288L293 281Q345 272 387 256Q428 241 453 212Q477 183 477 136Q477 64 424 25Q370 -14 280 -14Z"/><path id="bd-t" d="M263 0Q221 0 198 23Q176 46 176 86V420H29V489H176V663H255V489H415V420H255V98Q255 68 284 68H393V0Z"/><path id="bd-h" d="M83 0V700H162V411H176Q186 433 207 452Q227 472 260 485Q292 498 342 498Q397 498 440 474Q484 451 510 406Q536 362 536 296V0H457V290Q457 363 420 396Q384 429 322 429Q251 429 207 383Q162 337 162 246V0Z"/><path id="bd-c" d="M308 -14Q237 -14 180 16Q124 47 91 104Q59 161 59 239V250Q59 329 91 386Q124 442 180 473Q237 503 308 503Q378 503 427 477Q477 451 505 408Q534 365 542 316L465 300Q460 336 442 366Q423 396 390 414Q357 432 309 432Q260 432 222 410Q183 388 160 347Q138 306 138 249V240Q138 183 160 142Q183 101 222 79Q260 57 309 57Q382 57 421 95Q459 133 468 189L546 172Q535 124 506 81Q477 38 427 12Q378 -14 308 -14Z"/><path id="bd-r" d="M83 0V489H160V429H174Q187 461 214 476Q241 491 285 491H343V419H280Q227 419 194 389Q162 360 162 298V0Z"/><path id="bd-a" d="M233 -14Q182 -14 140 4Q98 22 74 56Q50 90 50 139Q50 189 74 222Q98 254 140 271Q182 287 234 287H399V323Q399 375 369 405Q338 435 278 435Q219 435 186 406Q153 378 141 330L67 354Q79 395 105 429Q131 462 174 483Q218 503 279 503Q373 503 425 455Q477 406 477 318V97Q477 67 505 67H550V0H481Q448 0 428 18Q408 37 408 68V73H396Q385 54 367 34Q348 13 316 0Q284 -14 233 -14ZM242 54Q312 54 356 95Q399 137 399 212V223H237Q190 223 160 203Q129 182 129 141Q129 100 161 77Q192 54 242 54Z"/><path id="bd-b" d="M354 -14Q278 -14 236 15Q193 44 174 81H160V0H83V700H162V412H176Q188 435 210 456Q232 476 268 490Q303 503 354 503Q418 503 470 473Q523 442 554 386Q585 329 585 251V238Q585 160 554 103Q522 46 470 16Q417 -14 354 -14ZM333 56Q409 56 456 105Q504 153 504 240V249Q504 336 457 384Q409 433 333 433Q258 433 210 384Q161 336 161 249V240Q161 153 210 105Q258 56 333 56Z"/><path id="bd-f" d="M179 0V420H29V489H179V614Q179 654 202 677Q224 700 266 700H389V632H288Q258 632 258 602V489H412V420H258V0Z"/><path id="bd-o" d="M309 -14Q235 -14 178 17Q122 48 90 105Q59 161 59 238V251Q59 327 90 384Q122 441 178 472Q235 503 309 503Q383 503 439 472Q496 441 527 384Q559 327 559 251V238Q559 161 527 105Q496 48 439 17Q383 -14 309 -14ZM309 57Q387 57 433 106Q480 156 480 240V249Q480 333 433 383Q387 432 309 432Q232 432 185 383Q138 333 138 249V240Q138 156 185 106Q232 57 309 57Z"/><path id="bd-i" d="M83 0V489H162V0ZM122 565Q97 565 79 582Q62 599 62 625Q62 652 79 669Q97 686 122 686Q149 686 166 669Q183 652 183 625Q183 599 166 582Q149 565 122 565Z"/><path id="bd-d" d="M290 -14Q227 -14 174 16Q121 46 90 103Q59 160 59 238V251Q59 329 90 386Q121 442 174 473Q226 503 290 503Q341 503 376 490Q412 476 434 456Q456 435 468 412H482V700H561V0H484V81H470Q450 44 408 15Q366 -14 290 -14ZM311 56Q387 56 434 105Q482 153 482 240V249Q482 336 435 384Q387 433 311 433Q236 433 188 384Q139 336 139 249V240Q139 153 188 105Q236 56 311 56Z"/><path id="bd-colon" d="M126 -14Q97 -14 78 5Q58 24 58 54Q58 84 78 103Q97 122 126 122Q156 122 175 103Q194 84 194 54Q194 24 175 5Q156 -14 126 -14ZM126 367Q97 367 78 386Q58 405 58 435Q58 465 78 484Q97 503 126 503Q156 503 175 484Q194 465 194 435Q194 405 175 386Q156 367 126 367Z"/><path id="bd-v" d="M207 0 32 489H116L263 59H277L424 489H508L333 0Z"/><path id="bd-n" d="M83 0V489H160V406H174Q190 441 229 470Q267 498 342 498Q397 498 440 475Q484 452 510 407Q536 362 536 296V0H457V290Q457 363 420 396Q384 429 322 429Q251 429 207 383Q162 337 162 246V0Z"/><path id="bd-R" d="M80 0V700H363Q428 700 478 678Q527 655 555 614Q583 572 583 514V503Q583 434 550 394Q517 354 472 340V326Q508 325 532 303Q555 280 555 235V0H472V225Q472 255 455 271Q439 287 406 287H164V0ZM164 363H355Q424 363 461 397Q499 430 499 490V497Q499 557 462 591Q425 624 355 624H164Z"/><path id="bd-p" d="M83 -200V489H160V408H174Q193 445 236 474Q278 503 354 503Q417 503 470 473Q522 442 554 386Q585 330 585 251V238Q585 160 554 103Q523 46 470 16Q418 -14 354 -14Q303 -14 268 -1Q232 13 210 34Q188 55 176 77H162V-200ZM333 56Q409 56 457 105Q504 153 504 240V249Q504 336 456 384Q409 433 333 433Q258 433 210 384Q161 336 161 249V240Q161 153 210 105Q258 56 333 56Z"/><path id="bd-y" d="M142 -200V-130H422Q451 -130 451 -100V78H437Q427 57 406 36Q386 16 353 3Q320 -9 270 -9Q217 -9 172 14Q128 37 102 82Q77 127 77 192V489H156V198Q156 126 192 93Q229 60 291 60Q361 60 406 106Q451 152 451 243V489H530V-114Q530 -154 507 -177Q485 -200 442 -200Z"/><path id="bd-P" d="M80 0V700H348Q411 700 461 676Q510 651 539 606Q568 561 568 497V484Q568 421 539 375Q509 330 459 306Q409 282 348 282H164V0ZM164 358H339Q406 358 445 391Q484 425 484 486V496Q484 557 446 591Q407 624 339 624H164Z"/><path id="bd-period" d="M126 -14Q97 -14 78 5Q58 24 58 54Q58 84 78 103Q97 122 126 122Q156 122 175 103Q194 84 194 54Q194 24 175 5Q156 -14 126 -14Z"/><path id="mo-I" d="M84 0V78H264V622H84V700H528V622H348V78H528V0Z"/><path id="mo-n" d="M87 0V496H165V412H177Q223 510 337 510Q423 510 474 456Q525 403 525 296V0H447V280Q447 358 412 397Q377 436 317 436Q247 436 206 388Q165 339 165 258V0Z"/><path id="mo-f" d="M235 0V424H82V496H235V622Q235 656 256 678Q278 700 312 700H508V628H340Q313 628 313 598V496H520V424H313V0Z"/><path id="mo-e" d="M308 -14Q237 -14 182 18Q128 51 97 108Q66 166 66 242V266Q66 336 98 391Q130 446 186 478Q241 510 310 510Q371 510 416 488Q460 466 488 432Q517 398 530 360Q544 321 544 288V224H144Q147 151 190 106Q234 60 310 60Q381 60 416 90Q451 120 464 162L538 142Q517 73 460 30Q404 -14 308 -14ZM146 296H466Q464 339 442 370Q419 402 384 419Q349 436 310 436Q244 436 199 396Q154 356 146 296Z"/><path id="mo-r" d="M47 0V72H161V424H59V496H239V430H251Q270 471 306 490Q341 510 385 510Q459 510 506 461Q552 412 555 318L473 306Q473 375 440 406Q407 436 359 436Q298 436 268 392Q239 347 239 282V72H365V0Z"/><path id="mo-c" d="M315 -14Q246 -14 188 16Q130 45 94 102Q59 159 59 240V252Q59 332 94 390Q130 448 188 479Q246 510 315 510Q378 510 428 486Q477 461 508 418Q540 375 549 320L471 302Q467 337 448 368Q429 398 396 417Q362 436 313 436Q265 436 226 412Q186 389 162 348Q139 306 139 252V240Q139 184 162 144Q186 103 226 82Q266 60 315 60Q364 60 398 80Q431 99 450 130Q468 160 473 194L551 176Q541 121 510 78Q479 35 430 10Q380 -14 315 -14Z"/><path id="dp-one" d="M258 0V606H240L146 384H12L155 700H386V0Z"/><path id="dp-five" d="M303 -14Q221 -14 162 15Q102 44 70 97Q38 150 38 220V230H168V221Q168 171 202 136Q235 100 301 100Q367 100 402 136Q438 171 438 228V238Q438 294 402 327Q367 360 314 360Q285 360 266 352Q247 344 235 332Q223 320 215 308H60V700H538V584H188V413H206Q216 426 233 438Q250 450 277 458Q304 466 341 466Q403 466 454 440Q505 414 536 364Q566 313 566 239V227Q566 153 534 99Q503 45 444 16Q385 -14 303 -14Z"/><path id="dp-F" d="M66 0V700H506V580H198V411H482V291H198V0Z"/><path id="dp-P" d="M66 0V700H354Q420 700 470 674Q521 647 550 599Q578 551 578 485V471Q578 406 548 358Q519 309 468 282Q418 256 354 256H198V0ZM198 376H341Q388 376 417 402Q446 428 446 473V483Q446 528 417 554Q388 580 341 580H198Z"/><path id="mo-L" d="M87 0V700H171V78H537V0Z"/><path id="mo-a" d="M279 -14Q214 -14 162 16Q109 45 78 102Q47 158 47 240V256Q47 337 78 394Q109 451 162 480Q214 510 277 510Q328 510 370 488Q411 465 435 418H447V496H525V102Q525 72 552 72H577V0H524Q493 0 470 20Q447 40 447 84H435Q411 35 368 10Q326 -14 279 -14ZM287 60Q357 60 402 110Q447 160 447 242V254Q447 307 426 348Q405 389 369 412Q333 436 287 436Q241 436 205 414Q169 391 148 350Q127 310 127 256V240Q127 156 172 108Q217 60 287 60Z"/><path id="mo-t" d="M303 0Q269 0 248 22Q226 44 226 78V424H70V496H226V700H304V496H496V424H304V102Q304 72 331 72H472V0Z"/><path id="mo-y" d="M165 -200V-128H420Q447 -128 447 -98V90H435Q411 42 372 14Q333 -14 273 -14Q191 -14 139 40Q87 94 87 200V496H165V210Q165 132 197 96Q229 60 295 60Q366 60 406 108Q447 157 447 238V496H525V-122Q525 -156 504 -178Q482 -200 448 -200Z"/><path id="mo-b" d="M329 -14Q281 -14 233 8Q185 31 159 76H147V0H69V700H147V418H159Q185 463 231 486Q277 510 331 510Q392 510 444 480Q496 451 528 394Q559 338 559 258V238Q559 157 528 101Q497 45 444 16Q392 -14 329 -14ZM313 60Q384 60 432 108Q479 156 479 238V258Q479 311 457 351Q435 391 398 414Q360 436 313 436Q267 436 230 412Q192 389 170 348Q147 307 147 254V242Q147 187 169 146Q191 105 229 82Q267 60 313 60Z"/><path id="mo-u" d="M267 -14Q185 -14 133 40Q81 94 81 200V496H159V210Q159 132 191 96Q223 60 289 60Q360 60 400 108Q441 157 441 238V496H519V0H441V90H429Q405 42 366 14Q327 -14 267 -14Z"/><path id="mo-d" d="M297 -14Q231 -14 177 16Q123 45 91 102Q59 159 59 240V256Q59 337 92 394Q124 450 178 480Q231 510 295 510Q346 510 390 488Q435 465 459 418H471V700H549V0H471V76H459Q435 30 388 8Q342 -14 297 -14ZM305 60Q352 60 390 82Q427 105 449 146Q471 187 471 242V254Q471 307 448 348Q426 389 388 412Q351 436 305 436Q258 436 220 414Q183 391 161 350Q139 310 139 256V240Q139 185 160 144Q182 104 220 82Q258 60 305 60Z"/><path id="mo-g" d="M142 -200V-128H437Q464 -128 464 -98V76H452Q428 31 386 8Q345 -14 296 -14Q230 -14 174 16Q119 45 86 102Q52 159 52 240V256Q52 337 86 394Q120 450 175 480Q230 510 294 510Q348 510 389 486Q430 463 452 418H464V496H542V-122Q542 -156 520 -178Q499 -200 465 -200ZM298 60Q345 60 382 82Q420 105 442 146Q464 187 464 242V254Q464 307 442 348Q419 389 382 412Q344 436 298 436Q251 436 214 414Q176 391 154 350Q132 310 132 256V240Q132 185 154 144Q175 104 212 82Q250 60 298 60Z"/><path id="dp-less" d="M520 130 100 272V428L520 570V450L222 359V341L520 250Z"/><path id="dp-zero" d="M324 -14Q200 -14 125 54Q50 123 50 262V438Q50 573 125 644Q200 714 324 714Q449 714 524 644Q598 573 598 438V262Q598 123 524 54Q449 -14 324 -14ZM324 100Q399 100 434 141Q470 182 470 258V444Q470 521 430 560Q391 600 324 600Q255 600 216 559Q178 518 178 444V258Q178 179 214 140Q251 100 324 100Z"/><path id="dp-m" d="M70 0V496H194V442H212Q225 467 255 486Q285 504 334 504Q387 504 419 484Q451 463 468 430H486Q503 462 534 483Q565 504 622 504Q668 504 706 484Q743 465 766 426Q788 386 788 326V0H662V317Q662 358 641 378Q620 399 582 399Q539 399 516 372Q492 344 492 293V0H366V317Q366 358 345 378Q324 399 286 399Q243 399 220 372Q196 344 196 293V0Z"/><path id="dp-s" d="M276 -14Q179 -14 117 28Q55 70 42 148L158 178Q165 143 182 123Q198 103 222 94Q247 86 276 86Q320 86 341 102Q362 117 362 140Q362 163 342 176Q322 188 278 196L250 201Q198 211 155 228Q112 246 86 277Q60 308 60 357Q60 431 114 470Q168 510 256 510Q339 510 394 473Q449 436 466 376L349 340Q341 378 316 394Q292 410 256 410Q220 410 201 398Q182 385 182 363Q182 339 202 328Q222 316 256 310L284 305Q340 295 386 278Q431 262 458 232Q484 201 484 149Q484 71 428 28Q371 -14 276 -14Z"/><path id="mo-M" d="M46 0V700H206L300 36H312L406 700H566V0H488V664H476L382 0H230L136 664H124V0Z"/><path id="mo-o" d="M306 -14Q240 -14 184 16Q127 46 92 103Q57 160 57 242V254Q57 335 92 392Q127 450 184 480Q240 510 306 510Q372 510 428 480Q485 450 520 392Q555 335 555 254V242Q555 160 520 103Q485 46 428 16Q372 -14 306 -14ZM306 60Q354 60 392 82Q430 104 452 145Q475 186 475 242V254Q475 308 452 349Q430 390 392 413Q353 436 306 436Q259 436 220 413Q182 390 160 349Q137 308 137 254V242Q137 186 160 145Q182 104 220 82Q259 60 306 60Z"/><path id="mo-l" d="M87 0V72H267V628H93V700H345V72H525V0Z"/><path id="dp-N" d="M66 0V700H317L456 90H474V700H604V0H353L214 610H196V0Z"/><path id="dp-T" d="M228 0V580H24V700H564V580H360V0Z"/><path id="dp-eight" d="M300 -14Q220 -14 158 10Q97 34 62 80Q28 125 28 187V199Q28 247 45 278Q62 310 88 328Q113 346 136 353V371Q113 379 90 397Q67 415 52 445Q38 475 38 517V529Q38 584 70 626Q103 667 162 690Q221 714 300 714Q379 714 438 690Q497 667 530 626Q562 584 562 529V517Q562 475 548 445Q533 415 510 397Q488 379 464 371V353Q488 346 513 328Q538 310 555 278Q572 247 572 199V187Q572 125 538 80Q503 34 442 10Q380 -14 300 -14ZM300 100Q369 100 406 126Q444 153 444 197V205Q444 249 408 276Q371 302 300 302Q230 302 193 276Q156 249 156 205V197Q156 153 194 126Q231 100 300 100ZM300 416Q364 416 399 439Q434 462 434 504V512Q434 554 398 577Q362 600 300 600Q238 600 202 577Q166 554 166 512V504Q166 462 201 439Q236 416 300 416Z"/><path id="mo-T" d="M264 0V622H60V700H552V622H348V0Z"/><path id="mo-F" d="M95 0V700H525V622H179V390H519V312H179V0Z"/><path id="mo-i" d="M311 574Q283 574 262 595Q241 616 241 644Q241 673 262 694Q283 714 311 714Q340 714 360 694Q381 673 381 644Q381 616 360 595Q340 574 311 574ZM99 0V72H273V424H117V496H351V72H513V0Z"/><path id="mo-E" d="M94 0V700H518V622H178V390H512V312H178V78H524V0Z"/><path id="mo-S" d="M320 -14Q230 -14 169 20Q108 53 76 111Q45 169 45 242V272H129V248Q129 157 180 110Q231 64 320 64Q398 64 438 99Q477 134 477 190V196Q477 251 436 280Q396 309 305 322Q200 337 138 382Q75 426 75 516V528Q75 583 104 624Q134 666 186 690Q238 714 306 714Q385 714 440 685Q496 656 526 608Q555 561 555 504V462H471V498Q471 544 448 574Q425 605 387 620Q349 636 305 636Q267 636 234 623Q200 610 180 586Q159 561 159 525V519Q159 461 206 434Q253 408 347 394Q457 378 509 330Q561 282 561 202V190Q561 99 500 42Q438 -14 320 -14Z"/><path id="mo-P" d="M85 0V700H335Q407 700 454 674Q502 647 526 604Q549 561 549 510V480Q549 429 525 385Q501 341 454 314Q406 288 335 288H169V0ZM169 366H325Q465 366 465 486V504Q465 557 430 590Q396 622 325 622H169Z"/><path id="mo-three" d="M317 -14Q238 -14 181 18Q124 49 94 102Q63 154 63 218V272H147V224Q147 149 195 106Q243 64 315 64Q359 64 394 84Q430 103 450 136Q471 168 471 208V214Q471 277 431 312Q391 348 331 348H237V464L465 610V622H69V700H537V572L309 426V414H349Q402 414 449 391Q496 368 526 324Q555 281 555 217V199Q555 139 524 90Q493 42 439 14Q385 -14 317 -14Z"/><path id="mo-two" d="M70 0V120Q70 184 98 226Q126 268 177 294Q228 321 298 336Q387 356 426 394Q466 431 466 484V490Q466 526 450 560Q434 593 400 614Q365 636 310 636Q234 636 191 589Q148 542 148 464V420H64V470Q64 534 92 590Q120 645 175 680Q230 714 310 714Q391 714 444 682Q497 651 524 602Q550 553 550 499V481Q550 402 500 345Q450 288 340 264Q245 243 200 208Q154 174 154 108V78H544V0Z"/><path id="mo-Q" d="M344 -156Q310 -156 288 -134Q267 -112 267 -78V-12Q169 0 114 72Q60 145 60 272V428Q60 563 126 638Q191 714 306 714Q422 714 487 638Q552 563 552 428V272Q552 145 498 72Q443 -1 345 -12V-54Q345 -84 372 -84H456V-156ZM306 64Q387 64 428 120Q468 176 468 278V422Q468 518 428 577Q387 636 306 636Q225 636 184 577Q144 518 144 422V278Q144 176 184 120Q225 64 306 64Z"/></defs><defs><linearGradient id="cg" x1="0" y1="0" x2="0" y2="1"><stop offset="0" stop-color="#11142b"/><stop offset="1" stop-color="#0a0c1b"/></linearGradient><radialGradient id="ag" cx=".5" cy=".55" r=".6"><stop offset="0" stop-color="#ffb547" stop-opacity=".22"/><stop offset="1" stop-color="#ffb547" stop-opacity="0"/></radialGradient><linearGradient id="sh" x1="0" x2="1"><stop offset="0" stop-color="#fff" stop-opacity="0"/><stop offset=".5" stop-color="#fff" stop-opacity=".09"/><stop offset="1" stop-color="#fff" stop-opacity="0"/></linearGradient><clipPath id="cc"><rect width="320" height="452" rx="20"/></clipPath><clipPath id="aw"><rect x="22" y="56" width="276" height="166" rx="12"/></clipPath></defs><g clip-path="url(#cc)"><rect width="320" height="452" fill="url(#cg)"/><rect x="10" y="10" width="300" height="432" rx="13" stroke="#ffb547" stroke-opacity=".28"/><g transform="translate(26.00 38.00)" fill="#ffb547"><use href="#mb-N" xlink:href="#mb-N" transform="translate(0.00 0) scale(0.01200 -0.01200)"/><use href="#mb-o" xlink:href="#mb-o" transform="translate(8.06 0) scale(0.01200 -0.01200)"/><use href="#mb-period" xlink:href="#mb-period" transform="translate(16.13 0) scale(0.01200 -0.01200)"/><use href="#mb-zero" xlink:href="#mb-zero" transform="translate(24.19 0) scale(0.01200 -0.01200)"/><use href="#mb-one" xlink:href="#mb-one" transform="translate(32.26 0) scale(0.01200 -0.01200)"/></g><rect x="227.2" y="24" width="66.8" height="20" rx="10" fill="#ffb547" fill-opacity=".14" stroke="#ffb547" stroke-opacity=".5"/><g transform="translate(236.16 38.00)" fill="#ffb547"><use href="#mb-E" xlink:href="#mb-E" transform="translate(0.00 0) scale(0.01000 -0.01000)"/><use href="#mb-D" xlink:href="#mb-D" transform="translate(7.12 0) scale(0.01000 -0.01000)"/><use href="#mb-G" xlink:href="#mb-G" transform="translate(14.24 0) scale(0.01000 -0.01000)"/><use href="#mb-E" xlink:href="#mb-E" transform="translate(21.36 0) scale(0.01000 -0.01000)"/><use href="#mb-A" xlink:href="#mb-A" transform="translate(35.60 0) scale(0.01000 -0.01000)"/><use href="#mb-I" xlink:href="#mb-I" transform="translate(42.72 0) scale(0.01000 -0.01000)"/></g><rect x="22" y="56" width="276" height="166" rx="12" fill="#0a0c1b" stroke="#252a4a"/><rect x="22" y="56" width="276" height="166" rx="12" fill="url(#ag)"/><g clip-path="url(#aw)"><path d="M160.0 82L208.0 100V140Q208.0 180 160.0 200Q112.0 180 112.0 140V100Z" fill="#ffb547" fill-opacity=".1" stroke="#ffb547" stroke-width="2"/><path d="M160.0 114V182" stroke="#ffb547" stroke-width="2" stroke-dasharray="6 6" class="lane"/><path d="M154.0 114L130.0 178M166.0 114L190.0 178" stroke="#ffb547" stroke-opacity=".5" stroke-width="1.5"/><g class="bob"><rect x="147.0" y="134" width="26" height="15" rx="3" fill="#0a0c1b" stroke="#f4f1ea" stroke-width="1.5"/><path d="M140.0 134V127H147.0M173.0 127H180.0V134M180.0 149V156H173.0M147.0 156H140.0V149" stroke="#ffb547" stroke-width="2"/></g></g><g transform="translate(26.00 262.00)" fill="#f4f1ea"><use href="#dp-R" xlink:href="#dp-R" transform="translate(0.00 0) scale(0.02800 -0.02800)"/><use href="#dp-i" xlink:href="#dp-i" transform="translate(17.70 0) scale(0.02800 -0.02800)"/><use href="#dp-d" xlink:href="#dp-d" transform="translate(25.14 0) scale(0.02800 -0.02800)"/><use href="#dp-e" xlink:href="#dp-e" transform="translate(43.01 0) scale(0.02800 -0.02800)"/><use href="#dp-r" xlink:href="#dp-r" transform="translate(59.16 0) scale(0.02800 -0.02800)"/><use href="#dp-S" xlink:href="#dp-S" transform="translate(70.25 0) scale(0.02800 -0.02800)"/><use href="#dp-h" xlink:href="#dp-h" transform="translate(87.22 0) scale(0.02800 -0.02800)"/><use href="#dp-i" xlink:href="#dp-i" transform="translate(104.47 0) scale(0.02800 -0.02800)"/><use href="#dp-e" xlink:href="#dp-e" transform="translate(111.92 0) scale(0.02800 -0.02800)"/><use href="#dp-l" xlink:href="#dp-l" transform="translate(128.07 0) scale(0.02800 -0.02800)"/><use href="#dp-d" xlink:href="#dp-d" transform="translate(135.52 0) scale(0.02800 -0.02800)"/><use href="#dp-A" xlink:href="#dp-A" transform="translate(160.50 0) scale(0.02800 -0.02800)"/><use href="#dp-I" xlink:href="#dp-I" transform="translate(178.25 0) scale(0.02800 -0.02800)"/></g><g transform="translate(26.00 288.00)" fill="#c3c0d6"><use href="#bd-S" xlink:href="#bd-S" transform="translate(0.00 0) scale(0.01400 -0.01400)"/><use href="#bd-e" xlink:href="#bd-e" transform="translate(8.58 0) scale(0.01400 -0.01400)"/><use href="#bd-e" xlink:href="#bd-e" transform="translate(16.87 0) scale(0.01400 -0.01400)"/><use href="#bd-s" xlink:href="#bd-s" transform="translate(25.16 0) scale(0.01400 -0.01400)"/><use href="#bd-t" xlink:href="#bd-t" transform="translate(36.13 0) scale(0.01400 -0.01400)"/><use href="#bd-h" xlink:href="#bd-h" transform="translate(42.57 0) scale(0.01400 -0.01400)"/><use href="#bd-e" xlink:href="#bd-e" transform="translate(51.16 0) scale(0.01400 -0.01400)"/><use href="#bd-c" xlink:href="#bd-c" transform="translate(63.04 0) scale(0.01400 -0.01400)"/><use href="#bd-r" xlink:href="#bd-r" transform="translate(71.41 0) scale(0.01400 -0.01400)"/><use href="#bd-a" xlink:href="#bd-a" transform="translate(76.69 0) scale(0.01400 -0.01400)"/><use href="#bd-s" xlink:href="#bd-s" transform="translate(84.74 0) scale(0.01400 -0.01400)"/><use href="#bd-h" xlink:href="#bd-h" transform="translate(92.12 0) scale(0.01400 -0.01400)"/><use href="#bd-b" xlink:href="#bd-b" transform="translate(104.30 0) scale(0.01400 -0.01400)"/><use href="#bd-e" xlink:href="#bd-e" transform="translate(113.32 0) scale(0.01400 -0.01400)"/><use href="#bd-f" xlink:href="#bd-f" transform="translate(121.60 0) scale(0.01400 -0.01400)"/><use href="#bd-o" xlink:href="#bd-o" transform="translate(127.79 0) scale(0.01400 -0.01400)"/><use href="#bd-r" xlink:href="#bd-r" transform="translate(136.44 0) scale(0.01400 -0.01400)"/><use href="#bd-e" xlink:href="#bd-e" transform="translate(141.72 0) scale(0.01400 -0.01400)"/><use href="#bd-t" xlink:href="#bd-t" transform="translate(153.61 0) scale(0.01400 -0.01400)"/><use href="#bd-h" xlink:href="#bd-h" transform="translate(160.05 0) scale(0.01400 -0.01400)"/><use href="#bd-e" xlink:href="#bd-e" transform="translate(168.63 0) scale(0.01400 -0.01400)"/><use href="#bd-r" xlink:href="#bd-r" transform="translate(180.52 0) scale(0.01400 -0.01400)"/><use href="#bd-i" xlink:href="#bd-i" transform="translate(185.79 0) scale(0.01400 -0.01400)"/><use href="#bd-d" xlink:href="#bd-d" transform="translate(189.22 0) scale(0.01400 -0.01400)"/><use href="#bd-e" xlink:href="#bd-e" transform="translate(198.24 0) scale(0.01400 -0.01400)"/><use href="#bd-r" xlink:href="#bd-r" transform="translate(206.53 0) scale(0.01400 -0.01400)"/><use href="#bd-d" xlink:href="#bd-d" transform="translate(215.40 0) scale(0.01400 -0.01400)"/><use href="#bd-o" xlink:href="#bd-o" transform="translate(224.42 0) scale(0.01400 -0.01400)"/><use href="#bd-e" xlink:href="#bd-e" transform="translate(233.07 0) scale(0.01400 -0.01400)"/><use href="#bd-s" xlink:href="#bd-s" transform="translate(241.36 0) scale(0.01400 -0.01400)"/><use href="#bd-colon" xlink:href="#bd-colon" transform="translate(248.74 0) scale(0.01400 -0.01400)"/></g><g transform="translate(26.00 307.00)" fill="#c3c0d6"><use href="#bd-v" xlink:href="#bd-v" transform="translate(0.00 0) scale(0.01400 -0.01400)"/><use href="#bd-i" xlink:href="#bd-i" transform="translate(7.55 0) scale(0.01400 -0.01400)"/><use href="#bd-s" xlink:href="#bd-s" transform="translate(10.98 0) scale(0.01400 -0.01400)"/><use href="#bd-i" xlink:href="#bd-i" transform="translate(18.35 0) scale(0.01400 -0.01400)"/><use href="#bd-o" xlink:href="#bd-o" transform="translate(21.78 0) scale(0.01400 -0.01400)"/><use href="#bd-n" xlink:href="#bd-n" transform="translate(30.44 0) scale(0.01400 -0.01400)"/><use href="#bd-o" xlink:href="#bd-o" transform="translate(42.62 0) scale(0.01400 -0.01400)"/><use href="#bd-n" xlink:href="#bd-n" transform="translate(51.27 0) scale(0.01400 -0.01400)"/><use href="#bd-a" xlink:href="#bd-a" transform="translate(63.45 0) scale(0.01400 -0.01400)"/><use href="#bd-R" xlink:href="#bd-R" transform="translate(75.10 0) scale(0.01400 -0.01400)"/><use href="#bd-a" xlink:href="#bd-a" transform="translate(83.93 0) scale(0.01400 -0.01400)"/><use href="#bd-s" xlink:href="#bd-s" transform="translate(91.98 0) scale(0.01400 -0.01400)"/><use href="#bd-p" xlink:href="#bd-p" transform="translate(99.36 0) scale(0.01400 -0.01400)"/><use href="#bd-b" xlink:href="#bd-b" transform="translate(108.37 0) scale(0.01400 -0.01400)"/><use href="#bd-e" xlink:href="#bd-e" transform="translate(117.39 0) scale(0.01400 -0.01400)"/><use href="#bd-r" xlink:href="#bd-r" transform="translate(125.68 0) scale(0.01400 -0.01400)"/><use href="#bd-r" xlink:href="#bd-r" transform="translate(130.96 0) scale(0.01400 -0.01400)"/><use href="#bd-y" xlink:href="#bd-y" transform="translate(136.23 0) scale(0.01400 -0.01400)"/><use href="#bd-P" xlink:href="#bd-P" transform="translate(148.40 0) scale(0.01400 -0.01400)"/><use href="#bd-i" xlink:href="#bd-i" transform="translate(156.81 0) scale(0.01400 -0.01400)"/><use href="#bd-period" xlink:href="#bd-period" transform="translate(160.24 0) scale(0.01400 -0.01400)"/></g><g transform="translate(26.00 338.00)" fill="#7c7a9a"><use href="#mo-I" xlink:href="#mo-I" transform="translate(0.00 0) scale(0.01100 -0.01100)"/><use href="#mo-n" xlink:href="#mo-n" transform="translate(6.73 0) scale(0.01100 -0.01100)"/><use href="#mo-f" xlink:href="#mo-f" transform="translate(13.46 0) scale(0.01100 -0.01100)"/><use href="#mo-e" xlink:href="#mo-e" transform="translate(20.20 0) scale(0.01100 -0.01100)"/><use href="#mo-r" xlink:href="#mo-r" transform="translate(26.93 0) scale(0.01100 -0.01100)"/><use href="#mo-e" xlink:href="#mo-e" transform="translate(33.66 0) scale(0.01100 -0.01100)"/><use href="#mo-n" xlink:href="#mo-n" transform="translate(40.39 0) scale(0.01100 -0.01100)"/><use href="#mo-c" xlink:href="#mo-c" transform="translate(47.12 0) scale(0.01100 -0.01100)"/><use href="#mo-e" xlink:href="#mo-e" transform="translate(53.86 0) scale(0.01100 -0.01100)"/></g><path d="M94.6 334H237.2" stroke="#252a4a" stroke-width="1.5" stroke-dasharray="1 4" stroke-linecap="round"/><g transform="translate(245.20 339.00)" fill="#ffb547"><use href="#dp-one" xlink:href="#dp-one" transform="translate(0.00 0) scale(0.01600 -0.01600)"/><use href="#dp-five" xlink:href="#dp-five" transform="translate(7.23 0) scale(0.01600 -0.01600)"/><use href="#dp-F" xlink:href="#dp-F" transform="translate(20.90 0) scale(0.01600 -0.01600)"/><use href="#dp-P" xlink:href="#dp-P" transform="translate(29.44 0) scale(0.01600 -0.01600)"/><use href="#dp-S" xlink:href="#dp-S" transform="translate(39.10 0) scale(0.01600 -0.01600)"/></g><g transform="translate(26.00 362.00)" fill="#7c7a9a"><use href="#mo-L" xlink:href="#mo-L" transform="translate(0.00 0) scale(0.01100 -0.01100)"/><use href="#mo-a" xlink:href="#mo-a" transform="translate(6.73 0) scale(0.01100 -0.01100)"/><use href="#mo-t" xlink:href="#mo-t" transform="translate(13.46 0) scale(0.01100 -0.01100)"/><use href="#mo-e" xlink:href="#mo-e" transform="translate(20.20 0) scale(0.01100 -0.01100)"/><use href="#mo-n" xlink:href="#mo-n" transform="translate(26.93 0) scale(0.01100 -0.01100)"/><use href="#mo-c" xlink:href="#mo-c" transform="translate(33.66 0) scale(0.01100 -0.01100)"/><use href="#mo-y" xlink:href="#mo-y" transform="translate(40.39 0) scale(0.01100 -0.01100)"/><use href="#mo-b" xlink:href="#mo-b" transform="translate(53.86 0) scale(0.01100 -0.01100)"/><use href="#mo-u" xlink:href="#mo-u" transform="translate(60.59 0) scale(0.01100 -0.01100)"/><use href="#mo-d" xlink:href="#mo-d" transform="translate(67.32 0) scale(0.01100 -0.01100)"/><use href="#mo-g" xlink:href="#mo-g" transform="translate(74.05 0) scale(0.01100 -0.01100)"/><use href="#mo-e" xlink:href="#mo-e" transform="translate(80.78 0) scale(0.01100 -0.01100)"/><use href="#mo-t" xlink:href="#mo-t" transform="translate(87.52 0) scale(0.01100 -0.01100)"/></g><path d="M128.2 358H222.0" stroke="#252a4a" stroke-width="1.5" stroke-dasharray="1 4" stroke-linecap="round"/><g transform="translate(230.00 363.00)" fill="#f4f1ea"><use href="#dp-less" xlink:href="#dp-less" transform="translate(0.00 0) scale(0.01600 -0.01600)"/><use href="#dp-one" xlink:href="#dp-one" transform="translate(9.92 0) scale(0.01600 -0.01600)"/><use href="#dp-zero" xlink:href="#dp-zero" transform="translate(17.15 0) scale(0.01600 -0.01600)"/><use href="#dp-zero" xlink:href="#dp-zero" transform="translate(27.52 0) scale(0.01600 -0.01600)"/><use href="#dp-m" xlink:href="#dp-m" transform="translate(41.95 0) scale(0.01600 -0.01600)"/><use href="#dp-s" xlink:href="#dp-s" transform="translate(55.62 0) scale(0.01600 -0.01600)"/></g><g transform="translate(26.00 386.00)" fill="#7c7a9a"><use href="#mo-M" xlink:href="#mo-M" transform="translate(0.00 0) scale(0.01100 -0.01100)"/><use href="#mo-o" xlink:href="#mo-o" transform="translate(6.73 0) scale(0.01100 -0.01100)"/><use href="#mo-d" xlink:href="#mo-d" transform="translate(13.46 0) scale(0.01100 -0.01100)"/><use href="#mo-e" xlink:href="#mo-e" transform="translate(20.20 0) scale(0.01100 -0.01100)"/><use href="#mo-l" xlink:href="#mo-l" transform="translate(26.93 0) scale(0.01100 -0.01100)"/></g><path d="M67.7 382H252.0" stroke="#252a4a" stroke-width="1.5" stroke-dasharray="1 4" stroke-linecap="round"/><g transform="translate(260.05 387.00)" fill="#f4f1ea"><use href="#dp-I" xlink:href="#dp-I" transform="translate(0.00 0) scale(0.01600 -0.01600)"/><use href="#dp-N" xlink:href="#dp-N" transform="translate(4.22 0) scale(0.01600 -0.01600)"/><use href="#dp-T" xlink:href="#dp-T" transform="translate(14.94 0) scale(0.01600 -0.01600)"/><use href="#dp-eight" xlink:href="#dp-eight" transform="translate(24.35 0) scale(0.01600 -0.01600)"/></g><rect x="26.0" y="402" width="52.7" height="22" rx="11" stroke="#252a4a" stroke-width="1.2"/><g transform="translate(34.00 417.00)" fill="#c3c0d6"><use href="#mo-T" xlink:href="#mo-T" transform="translate(0.00 0) scale(0.01000 -0.01000)"/><use href="#mo-F" xlink:href="#mo-F" transform="translate(6.12 0) scale(0.01000 -0.01000)"/><use href="#mo-L" xlink:href="#mo-L" transform="translate(12.24 0) scale(0.01000 -0.01000)"/><use href="#mo-i" xlink:href="#mo-i" transform="translate(18.36 0) scale(0.01000 -0.01000)"/><use href="#mo-t" xlink:href="#mo-t" transform="translate(24.48 0) scale(0.01000 -0.01000)"/><use href="#mo-e" xlink:href="#mo-e" transform="translate(30.60 0) scale(0.01000 -0.01000)"/></g><rect x="84.7" y="402" width="46.6" height="22" rx="11" stroke="#252a4a" stroke-width="1.2"/><g transform="translate(92.72 417.00)" fill="#c3c0d6"><use href="#mo-E" xlink:href="#mo-E" transform="translate(0.00 0) scale(0.01000 -0.01000)"/><use href="#mo-S" xlink:href="#mo-S" transform="translate(6.12 0) scale(0.01000 -0.01000)"/><use href="#mo-P" xlink:href="#mo-P" transform="translate(12.24 0) scale(0.01000 -0.01000)"/><use href="#mo-three" xlink:href="#mo-three" transform="translate(18.36 0) scale(0.01000 -0.01000)"/><use href="#mo-two" xlink:href="#mo-two" transform="translate(24.48 0) scale(0.01000 -0.01000)"/></g><rect x="137.3" y="402" width="40.5" height="22" rx="11" stroke="#252a4a" stroke-width="1.2"/><g transform="translate(145.32 417.00)" fill="#c3c0d6"><use href="#mo-M" xlink:href="#mo-M" transform="translate(0.00 0) scale(0.01000 -0.01000)"/><use href="#mo-Q" xlink:href="#mo-Q" transform="translate(6.12 0) scale(0.01000 -0.01000)"/><use href="#mo-T" xlink:href="#mo-T" transform="translate(12.24 0) scale(0.01000 -0.01000)"/><use href="#mo-T" xlink:href="#mo-T" transform="translate(18.36 0) scale(0.01000 -0.01000)"/></g><rect x="183.8" y="402" width="58.8" height="22" rx="11" stroke="#252a4a" stroke-width="1.2"/><g transform="translate(191.80 417.00)" fill="#c3c0d6"><use href="#mo-F" xlink:href="#mo-F" transform="translate(0.00 0) scale(0.01000 -0.01000)"/><use href="#mo-l" xlink:href="#mo-l" transform="translate(6.12 0) scale(0.01000 -0.01000)"/><use href="#mo-u" xlink:href="#mo-u" transform="translate(12.24 0) scale(0.01000 -0.01000)"/><use href="#mo-t" xlink:href="#mo-t" transform="translate(18.36 0) scale(0.01000 -0.01000)"/><use href="#mo-t" xlink:href="#mo-t" transform="translate(24.48 0) scale(0.01000 -0.01000)"/><use href="#mo-e" xlink:href="#mo-e" transform="translate(30.60 0) scale(0.01000 -0.01000)"/><use href="#mo-r" xlink:href="#mo-r" transform="translate(36.72 0) scale(0.01000 -0.01000)"/></g><g class="sheen"><rect x="-40" y="0" width="140" height="452" fill="url(#sh)" transform="skewX(-18)"/></g></g><rect x=".75" y=".75" width="318.5" height="450.5" rx="20" stroke="#ffb547" stroke-opacity=".55" stroke-width="1.5"/></svg>